<svg width="11" height="11" viewBox="0 0 11 11" fill="none" xmlns="http://www.w3.org/2000/svg">
<g opacity="0.8">
<path d="M6.07788 0.917236C6.19593 0.917236 6.28685 1.01353 6.28687 1.12817V2.60474C6.28687 3.44401 6.9725 4.13236 7.80347 4.13696C8.14841 4.13696 8.4208 4.14184 8.62964 4.14185C8.77041 4.14185 9.00274 4.13696 9.198 4.13696C9.31125 4.13721 9.40201 4.22859 9.4021 4.34302V8.03052C9.4021 9.16791 8.48883 10.0901 7.35815 10.0901H3.74878C2.56825 10.0901 1.60538 9.12223 1.60522 7.92993V2.9856C1.60525 1.84825 2.52245 0.917278 3.65308 0.917236H6.07788ZM5.41968 4.48071C5.2335 4.48071 5.07886 4.63252 5.07886 4.82056V5.61353H4.29761C4.11168 5.61371 3.95791 5.7649 3.95776 5.95728C3.95776 6.1452 4.11159 6.29693 4.29761 6.29712H5.07886V7.09009C5.07886 7.27813 5.2335 7.42993 5.41968 7.42993C5.60579 7.42986 5.75562 7.27808 5.75562 7.09009V6.29712H6.54077C6.72695 6.29712 6.88159 6.14531 6.88159 5.95728C6.88145 5.76478 6.72686 5.61353 6.54077 5.61353H5.75562V4.82056C5.75562 4.63256 5.60579 4.48078 5.41968 4.48071ZM6.948 1.33325C6.948 1.13558 7.18527 1.0373 7.32104 1.17993C7.81185 1.69537 8.66962 2.59625 9.14917 3.09985C9.28172 3.23877 9.18494 3.46936 8.9939 3.46997C8.62067 3.47135 8.18051 3.47025 7.86401 3.46704C7.36194 3.46704 6.94824 3.04927 6.948 2.54224V1.33325Z" fill="#BEBEBE"/>
</g>
</svg>
