<svg width="11" height="11" viewBox="0 0 11 11" fill="none" xmlns="http://www.w3.org/2000/svg">
<path d="M9.83082 1.18415C9.60142 0.948697 9.26189 0.86098 8.94531 0.953314L1.56298 3.10008C1.22896 3.19288 0.992216 3.45926 0.928441 3.79767C0.863289 4.14207 1.09086 4.57928 1.38817 4.7621L3.69647 6.18081C3.93322 6.32624 4.23879 6.28976 4.4347 6.09217L7.07794 3.43249C7.21099 3.29398 7.43122 3.29398 7.56428 3.43249C7.69734 3.56637 7.69734 3.78335 7.56428 3.92186L4.91646 6.582C4.72009 6.77914 4.68338 7.08615 4.82791 7.32437L6.2383 9.65581C6.40348 9.93281 6.68794 10.0898 6.99994 10.0898C7.03664 10.0898 7.07794 10.0898 7.11464 10.0852C7.47252 10.039 7.75698 9.79431 7.86251 9.44805L10.0511 2.07517C10.1474 1.76124 10.0602 1.4196 9.83082 1.18415Z" fill="white"/>
</svg>
