<svg width="40" height="40" viewBox="0 0 40 40" fill="none" xmlns="http://www.w3.org/2000/svg">
<path d="M23.8889 15.5554V13.3332H21.6667C21.372 13.3332 21.0894 13.4502 20.881 13.6586C20.6726 13.867 20.5556 14.1496 20.5556 14.4443V25.5554C20.5556 25.8501 20.6726 26.1327 20.881 26.3411C21.0894 26.5494 21.372 26.6665 21.6667 26.6665H23.8889V24.4443C23.8889 23.8549 24.123 23.2897 24.5398 22.8729C24.9565 22.4562 25.5217 22.2221 26.1111 22.2221H32.7778C33.3671 22.2221 33.9324 22.4562 34.3491 22.8729C34.7659 23.2897 35 23.8549 35 24.4443V31.111C35 31.7003 34.7659 32.2656 34.3491 32.6823C33.9324 33.099 33.3671 33.3332 32.7778 33.3332H26.1111C25.5217 33.3332 24.9565 33.099 24.5398 32.6823C24.123 32.2656 23.8889 31.7003 23.8889 31.111V28.8887H21.6667C20.7826 28.8887 19.9348 28.5375 19.3096 27.9124C18.6845 27.2873 18.3333 26.4395 18.3333 25.5554V21.111H13.8889V22.2221C13.8889 22.8114 13.6548 23.3767 13.238 23.7934C12.8213 24.2102 12.256 24.4443 11.6667 24.4443H7.22222C6.63285 24.4443 6.06762 24.2102 5.65087 23.7934C5.23413 23.3767 5 22.8114 5 22.2221V17.7776C5 17.1882 5.23413 16.623 5.65087 16.2063C6.06762 15.7895 6.63285 15.5554 7.22222 15.5554H11.6667C12.256 15.5554 12.8213 15.7895 13.238 16.2063C13.6548 16.623 13.8889 17.1882 13.8889 17.7776V18.8887H18.3333V14.4443C18.3333 13.5602 18.6845 12.7124 19.3096 12.0873C19.9348 11.4621 20.7826 11.1109 21.6667 11.1109H23.8889V8.88873C23.8889 8.29936 24.123 7.73413 24.5398 7.31738C24.9565 6.90063 25.5217 6.6665 26.1111 6.6665H32.7778C33.3671 6.6665 33.9324 6.90063 34.3491 7.31738C34.7659 7.73413 35 8.29936 35 8.88873V15.5554C35 16.1448 34.7659 16.71 34.3491 17.1267C33.9324 17.5435 33.3671 17.7776 32.7778 17.7776H26.1111C25.5217 17.7776 24.9565 17.5435 24.5398 17.1267C24.123 16.71 23.8889 16.1448 23.8889 15.5554Z" fill="#7C7C7C"/>
</svg>
